PathFileType	4	(X/Y/Z)	C:/Users/beibeiliu/ov580/test_trc/User2\sequence.40_training_dense_left.trc
DataRate	CameraRate	NumFrames	NumMarkers	Units	OrigDataRate	OrigDataStartFrame	OrigNumFrames
120	120	17	19	mm	120	149	198
Frame#	Time	ThumbCMC			ThumbMCP			ThumbIP			ThumbTip			IndexMCP			IndexPIP			IndexTip			MiddleMCP			MiddlePIP			MiddleTip			RingMCP			RingPIP			RingTip			PinkyMCP			PinkyPIP			PinkyTip			BackHand1			BackHand2			BackHand3	
		X0	Y0	Z0	X1	Y1	Z1	X2	Y2	Z2	X3	Y3	Z3	X4	Y4	Z4	X5	Y5	Z5	X6	Y6	Z6	X7	Y7	Z7	X8	Y8	Z8	X9	Y9	Z9	X10	Y10	Z10	X11	Y11	Z11	X12	Y12	Z12	X13	Y13	Z13	X14	Y14	Z14	X15	Y15	Z15	X16	Y16	Z16	X17	Y17	Z17	X18	Y18	Z18	
148	1.23333	-227.518	-6.6211	-28.9084	-215.35	28.4292	-41.1903	-199.06	54.6619	-53.8293	-183.036	75.9227	-62.8419	-185.727	-4.67028	-99.2215	-170.66	22.0067	-108.91	-155.167	51.1658	-99.6506	-166.373	-23.9209	-101.65	-149.979	-3.72239	-125.377	-130.3	22.3398	-138.626	-139.29	-32.3381	-85.3266	-125.315	-17.9161	-106.36	-112.052	6.81001	-123.891	-126.784	-33.0263	-60.6634	-108.741	-19.851	-80.4163	-91.0568	-5.59498	-95.2337	-168.71	-52.8158	-40.5316	-189.167	-65.3976	-10.0956	-209.176	-48.3381	-39.6916	
149	1.24167	-224.3	-8.3675	-28.4212	-217.483	28.3924	-38.8867	-197.825	56.4371	-57.0897	-177.232	71.3015	-67.3729	-183.108	1.13131	-99.2909	-169.395	24.5956	-103.044	-158.971	55.5775	-85.5111	-167.235	-23.4438	-100.2	-149.65	-5.06151	-124.462	-133.503	26.4734	-141.365	-143.426	-31.3994	-87.4177	-124.477	-17.372	-107.496	-110.546	2.79788	-121.444	-128.165	-32.6807	-59.6365	-108.238	-22.0927	-76.2432	-91.1617	-5.81007	-93.569	-167.664	-54.5854	-39.8013	-183.101	-65.6196	-9.83329	-210.981	-48.7632	-39.7122	
150	1.25	-222.661	-8.58709	-30.5683	-213.511	27.5206	-42.0211	-200.238	53.8532	-55.0684	-178.823	70.1533	-66.6944	-183.949	-0.58193	-96.2427	-171.921	31.7696	-99.0119	-157.921	52.6685	-78.0986	-163.444	-23.2301	-102.463	-147.247	-1.24621	-125.817	-135.322	22.6835	-138.693	-144.678	-31.2694	-90.829	-125.959	-17.3338	-108.739	-112.766	5.08383	-123.518	-125.43	-34.925	-61.3464	-108.117	-20.3986	-79.696	-90.8228	-8.08582	-96.7207	-171.575	-54.6486	-37.8735	-184.462	-64.7357	-11.5425	-210.606	-50.0487	-39.7152	
151	1.25833	-226.244	-5.89829	-31.6013	-212.467	24.2313	-41.4074	-198.23	54.9139	-58.8634	-175.536	65.3217	-67.1783	-184.78	-0.504489	-95.8778	-170.838	29.9469	-97.2548	-158.743	52.8701	-74.1578	-164.855	-24.3098	-100.202	-149.594	-3.591	-126.263	-134.771	24.7493	-140.591	-142.339	-32.2759	-90.7023	-127.031	-17.3099	-109.631	-113.992	2.20764	-123.579	-127.817	-33.5839	-64.6686	-107.957	-22.0395	-79.5509	-93.1942	-10.0464	-93.8427	-168.185	-56.5604	-41.5814	-182.962	-66.4875	-12.415	-205.682	-49.2795	-41.7026	
152	1.26667	-225.295	-5.83718	-30.4521	-216.223	26.032	-37.5862	-200.748	54.7147	-54.8688	-179.284	68.4866	-65.4364	-185.642	3.2067	-96.9479	-172.739	32.8859	-98.3205	-159.836	53.6622	-79.4928	-164.923	-23.5171	-102.248	-152.177	-3.45425	-126.813	-134.45	21.3423	-140.679	-144.95	-32.2226	-87.7969	-127.287	-19.2973	-107.358	-110.692	4.8214	-125.219	-125.024	-34.5926	-61.0939	-109.707	-20.4828	-80.7745	-93.5548	-7.37704	-95.0589	-170.595	-54.4316	-38.4827	-187.363	-65.8105	-13.5944	-207.889	-48.8078	-39.037	
153	1.275	-223.857	-5.68595	-29.2106	-217.542	30.1198	-38.3373	-198.118	54.891	-52.799	-181.306	72.0236	-60.4004	-183.63	-0.760148	-96.4862	-171.068	33.4238	-103.799	-155.729	55.9749	-86.1833	-165.535	-21.5659	-105.277	-148.671	-4.62358	-126.491	-135.191	21.4431	-143.024	-140.605	-32.4989	-84.0851	-123.415	-17.6429	-108.217	-112.192	2.59999	-123.077	-127.244	-31.5339	-61.2812	-104.115	-19.4208	-77.9611	-89.9569	-7.78584	-91.6782	-166.96	-52.515	-41.1337	-185.32	-65.4667	-11.0328	-208.314	-48.4414	-38.4168	
154	1.28333	-222.957	-3.73947	-28.9558	-216.197	34.4438	-37.3942	-198.047	63.3873	-51.0311	-179.653	76.0904	-56.6141	-184.554	2.44992	-101.976	-168.639	27.4008	-109.849	-155.638	53.0317	-101.304	-160.312	-21.5913	-100.917	-147.393	-2.38895	-125.679	-130.13	24.9242	-141.896	-142.669	-28.4431	-84.0501	-118.985	-13.9509	-105.041	-106.274	7.00494	-120.175	-123.994	-30.618	-56.2089	-104.426	-17.8293	-76.587	-87.6937	-6.17021	-85.988	-169.684	-50.3793	-39.1471	-184.671	-62.7722	-9.46943	-207.123	-43.5156	-40.8175	
155	1.29167	-224.18	-2.85318	-25.4406	-210.134	32.4498	-34.4457	-197.779	63.7795	-44.9665	-181.405	84.2194	-54.139	-187.097	-0.406874	-99.2085	-172.835	26.0146	-116.076	-156.504	52.8403	-112.757	-159.492	-18.4779	-98.8989	-142.384	6.61816	-122.651	-125.178	31.5964	-130.793	-140.058	-25.2189	-83.3766	-118.297	-11.6526	-100.267	-105.569	14.9624	-114.562	-122.03	-28.0155	-57.8481	-100.762	-16.4201	-70.35	-84.5141	-4.40667	-83.3895	-169.648	-49.5557	-38.6071	-186.473	-63.0289	-9.83477	-205.414	-46.0755	-36.9177	
156	1.3	-222.757	-0.870556	-26.2861	-210.811	31.7857	-32.2155	-197.186	64.9019	-44.2866	-183.155	85.1323	-49.23	-181.309	-1.4508	-99.5091	-170.184	21.0638	-115.616	-156.297	48.8446	-116.229	-154.136	-13.1682	-97.2219	-138.467	12.7572	-113.147	-122.647	45.9655	-112.875	-134.008	-22.7968	-81.602	-120.652	-1.88865	-99.5093	-106.825	26.3423	-106.072	-125.963	-26.858	-53.6153	-104.075	-15.3517	-68.8167	-82.9286	-2.19459	-79.7856	-167.095	-47.5511	-37.2195	-185.113	-60.1415	-10.7584	-202.687	-43.2785	-38.6937	
157	1.30833	-227.006	-1.4686	-23.3447	-212.94	31.3562	-28.6962	-196.1	63.4255	-43.6341	-176.448	78.7946	-51.0412	-188.458	-1.68243	-98.5246	-174.742	20.0964	-114.768	-159.895	50.4305	-117.278	-156.652	-10.2878	-91.5896	-141.835	23.0904	-105.676	-128.87	57.9793	-92.8691	-135.533	-19.3615	-78.8266	-122.653	3.45339	-95.2598	-111.365	35.5501	-98.1008	-124.312	-27.249	-54.4653	-105.867	-14.5898	-69.8037	-90.2876	3.22312	-83.7606	-165.616	-48.4532	-36.7101	-183.112	-61.4745	-9.12897	-209.216	-42.6836	-36.5433	
158	1.31667	-224.557	-1.82018	-24.2156	-212.467	33.8443	-32.9429	-194.438	58.2759	-43.4386	-175.356	75.4806	-52.3283	-188.095	-1.70637	-99.4995	-175.683	22.1542	-115.192	-160.836	49.4179	-114.739	-159.898	-2.88126	-94.4394	-146.086	25.9862	-99.8743	-137.134	58.2816	-80.9279	-137.546	-15.6669	-82.8198	-126.388	7.54817	-95.26	-116.421	36.7692	-94.5372	-125.723	-26.974	-56.3465	-107.138	-14.929	-68.8815	-90.4938	3.56408	-85.2926	-170.886	-47.8144	-34.3161	-184.523	-62.2607	-8.57008	-210.366	-43.5462	-37.5963	
159	1.325	-227.474	-2.09465	-22.7432	-211.922	33.426	-35.8805	-192.122	58.694	-50.3167	-170.534	71.7401	-58.266	-193.907	-2.43692	-98.1384	-176.923	24.4993	-116.695	-162.158	47.892	-111.794	-160.951	-5.62829	-90.9522	-145.354	29.8799	-94.1281	-144.389	60.0613	-71.4111	-140.433	-16.3888	-80.6839	-129.695	9.27807	-95.9818	-122.658	41.1991	-93.0709	-130.297	-27.2975	-58.4545	-111.822	-14.129	-74.129	-96.6759	-1.81368	-89.3961	-171.859	-50.4897	-35.6582	-185.549	-62.7278	-10.841	-208.749	-44.598	-37.7906	
160	1.33333	-226.751	-3.31669	-22.6208	-212.366	30.8189	-35.8689	-192.93	58.6933	-51.2065	-167.472	70.5136	-62.9886	-189.744	-3.81073	-100.723	-178.216	20.904	-116.421	-162.521	51.8123	-111.796	-162.242	-2.76463	-93.4931	-148.312	30.8273	-93.4252	-146.682	60.1555	-65.6443	-144.229	-17.5724	-81.2063	-125.307	10.7422	-95.0056	-122.199	39.3962	-92.4119	-130.372	-28.0403	-56.6856	-108.029	-15.1067	-77.0425	-95.7802	-0.510836	-94.6869	-174.577	-48.398	-41.2234	-190.185	-59.6234	-11.3345	-213.883	-44.9254	-37.4782	
161	1.34167	-226.74	-3.3118	-24.263	-213.526	33.6055	-36.5906	-191.235	57.2863	-52.1715	-168.725	70.167	-63.1358	-193.571	-3.49658	-100.156	-180.4	19.6853	-116.889	-161.383	50.2239	-110.57	-162.559	-6.36418	-90.6415	-146.191	28.3918	-93.5475	-145.137	57.7843	-68.637	-141.154	-17.3226	-83.0359	-130.037	8.25685	-95.6262	-121.531	41.9909	-92.0324	-131.949	-28.7726	-56.0287	-113.492	-17.2706	-75.7505	-94.3875	-4.98019	-90.3679	-172.789	-48.2282	-39.9575	-185.162	-60.6914	-11.5103	-209.22	-45.2162	-38.0586	
162	1.35	-225.688	-3.52105	-25.5337	-211.682	32.5385	-37.3965	-193.835	58.7832	-49.664	-170.778	69.0925	-59.7686	-193.013	-4.20008	-100.924	-174.055	21.812	-116.927	-160.314	50.8427	-111.666	-160.743	-5.33652	-93.691	-147.999	31.0683	-96.6313	-145.963	58.8403	-73.7217	-142.275	-15.1882	-84.494	-127.304	6.99047	-94.0191	-120.544	38.2834	-93.4611	-129.672	-29.8825	-57.6618	-108.845	-19.0436	-73.1002	-91.3722	-4.49173	-91.495	-173.329	-49.1454	-37.346	-187.047	-60.6615	-12.1791	-214.582	-44.211	-37.2352	
163	1.35833	-227.012	-1.02575	-26.1877	-213.68	31.5012	-33.6012	-192.006	60.9159	-50.6638	-172.694	73.7095	-56.7668	-191.22	-2.9143	-99.8662	-174.578	21.1802	-117.125	-161.326	48.1202	-114.36	-162.69	-5.9839	-94.515	-145.197	24.0412	-99.8523	-142.48	57.2194	-82.9754	-142.425	-18.2565	-79.9563	-128.011	3.98022	-94.8849	-121.252	38.5575	-96.2152	-131.77	-27.4887	-55.6072	-110.248	-18.4887	-72.2205	-92.9719	-6.54112	-84.9893	-173.441	-50.1908	-36.3413	-191.14	-59.8023	-10.2362	-214.716	-42.6754	-35.5499	
164	1.36667	-225.322	-0.627441	-25.3653	-213.587	33.4381	-31.2208	-192.354	60.0675	-45.1157	-176.048	78.8689	-53.2224	-191.734	-0.720445	-101.276	-178.301	22.1604	-118.616	-162.811	47.6209	-116.302	-165.399	-8.74561	-94.9382	-144.96	22.4916	-106.102	-136.108	56.723	-91.4585	-141.536	-17.7081	-80.1044	-122.806	2.59638	-94.0312	-118.222	33.3817	-97.7959	-129.209	-26.5097	-51.3703	-108.393	-15.2642	-71.8949	-90.5431	-3.27083	-87.3033	-172.24	-46.6995	-34.7431	-187.454	-60.7443	-7.23311	-211.574	-42.0206	-38.8971	
